<svg width="20" height="27" viewBox="0 0 20 27" fill="none" xmlns="http://www.w3.org/2000/svg">
<path d="M18.5241 25.6586H18.0367C18.0367 25.6534 18.0343 25.6483 18.0333 25.6434L18.02 25.5838C18.0114 25.5446 18.0022 25.5057 17.9926 25.4671C17.9885 25.449 17.9841 25.4308 17.9797 25.4127C17.967 25.3618 17.9537 25.3109 17.94 25.2601L17.9359 25.2455C17.9209 25.1904 17.9051 25.1355 17.8887 25.0809L17.8723 25.0281C17.8611 24.9905 17.8491 24.9532 17.8382 24.9159C17.8317 24.8955 17.8248 24.8754 17.8183 24.8553C17.8064 24.8194 17.7941 24.7834 17.7814 24.7478C17.7749 24.729 17.7681 24.7098 17.7616 24.6914C17.7456 24.6467 17.7292 24.6023 17.7124 24.5582C17.7086 24.5488 17.7055 24.5397 17.7018 24.5303C17.682 24.4785 17.6611 24.427 17.6399 24.3754C17.6324 24.3566 17.6245 24.3382 17.6167 24.3197C17.6023 24.2873 17.588 24.2517 17.5733 24.218L17.5456 24.1554C17.5312 24.123 17.5165 24.0906 17.5015 24.0582C17.4923 24.0381 17.4827 24.0177 17.4731 23.9976C17.4557 23.9603 17.4389 23.9234 17.4195 23.8868C17.4123 23.8728 17.4058 23.8586 17.3986 23.8443C17.3743 23.7961 17.3494 23.7471 17.3241 23.7005L17.2899 23.6399L17.2417 23.552L17.2041 23.4872C17.1884 23.46 17.1727 23.4328 17.1566 23.4056C17.144 23.3835 17.131 23.3615 17.118 23.3408C17.1002 23.3113 17.0838 23.2824 17.0643 23.2533L17.0151 23.1742C16.9919 23.1379 16.9686 23.1013 16.9447 23.0653C16.9297 23.0427 16.9146 23.0203 16.8992 22.9979C16.8839 22.9756 16.8671 22.95 16.8507 22.9263C16.8343 22.9027 16.8165 22.879 16.8015 22.8557C16.7864 22.8324 16.77 22.8113 16.754 22.7909C16.7379 22.7705 16.7198 22.7432 16.7024 22.7196L16.6542 22.6548C16.62 22.6117 16.5885 22.5686 16.555 22.5252L16.5082 22.4659C16.4884 22.4409 16.4679 22.4163 16.4477 22.3917L16.4026 22.3372C16.3818 22.3123 16.3606 22.2876 16.3394 22.2627L16.2949 22.2115L16.2286 22.1363L16.1893 22.0929C16.1076 22.0031 16.0239 21.9147 15.9381 21.8285L15.9005 21.7906L15.8219 21.7138L15.7833 21.6768C15.7559 21.6506 15.7286 21.6247 15.7009 21.5991L15.6725 21.5731C15.5758 21.484 15.4763 21.3972 15.3752 21.3139L15.3475 21.2909C15.3163 21.265 15.2848 21.2394 15.2532 21.2141L15.2217 21.1888C15.1875 21.1629 15.1564 21.1373 15.1233 21.1117L15.1065 21.0991C14.9948 21.0135 14.8803 20.9302 14.7647 20.8502L14.7487 20.8389C14.7121 20.8139 14.6755 20.7893 14.6386 20.765L14.6143 20.7491C14.5767 20.7241 14.5388 20.6998 14.5009 20.6755L14.4944 20.6717C14.3686 20.5919 14.2404 20.5156 14.1098 20.4426L14.1047 20.4393C14.0634 20.4163 14.022 20.3939 13.9807 20.3716L13.9625 20.3619C13.7424 20.2441 13.5164 20.1361 13.2844 20.0378L13.2701 20.0317C13.2089 20.0058 13.1474 19.9808 13.0851 19.9562H14.3084C14.5077 19.9562 14.6694 19.7387 14.6694 19.4701C14.6694 19.2015 14.5077 18.9841 14.3084 18.9841H13.9441C13.9666 18.9296 13.9916 18.868 14.0186 18.7987C14.3631 18.5952 14.9695 18.1616 15.571 17.3651L15.5758 17.359C15.6214 17.2994 15.6662 17.2377 15.7101 17.174L15.719 17.1613C15.7628 17.0988 15.8065 17.0343 15.8496 16.9669L15.8612 16.9491C15.8817 16.9167 15.9022 16.8843 15.9227 16.8519C15.9227 16.8519 15.9227 16.8493 15.9251 16.8477C15.9463 16.8153 15.9672 16.7796 15.988 16.7449L16.0013 16.7226C16.0191 16.6928 16.0372 16.6623 16.0547 16.6315C16.0581 16.626 16.0615 16.6205 16.0646 16.6147C16.0847 16.5797 16.1049 16.544 16.1247 16.5081L16.1384 16.4831C16.1548 16.4533 16.1709 16.4232 16.1869 16.3927C16.1917 16.3843 16.1965 16.3755 16.201 16.3668C16.2201 16.3302 16.2392 16.2932 16.2584 16.2556L16.2717 16.2294C16.2867 16.1989 16.3021 16.1678 16.3172 16.1367L16.3336 16.1043C16.352 16.0661 16.3701 16.0272 16.3883 15.988L16.3995 15.963C16.4146 15.9306 16.4293 15.8982 16.444 15.8658L16.4614 15.8269C16.4785 15.7877 16.4956 15.7482 16.512 15.7083C16.5151 15.7012 16.5181 15.6937 16.5209 15.6866C16.5363 15.65 16.5513 15.6127 16.5663 15.5751L16.5834 15.5324C16.5974 15.4967 16.6114 15.4608 16.6251 15.4248L16.6354 15.3976C16.6514 15.3548 16.6672 15.3111 16.6829 15.268L16.6993 15.2219C16.7116 15.1876 16.7236 15.1526 16.7355 15.1176C16.74 15.1046 16.7444 15.0917 16.7485 15.0787C16.7635 15.034 16.7786 14.9883 16.7933 14.9426C16.7981 14.9267 16.8032 14.9102 16.808 14.8953L16.8422 14.7887C16.8466 14.7732 16.8514 14.7563 16.8558 14.7424C16.8698 14.6954 16.8839 14.6474 16.8972 14.5991C16.9016 14.5839 16.9057 14.5684 16.9098 14.5528C16.9201 14.5155 16.9303 14.4783 16.9403 14.4404C16.9447 14.4232 16.9491 14.406 16.9539 14.3888C16.9666 14.3389 16.9792 14.2887 16.9915 14.2378L17.0018 14.1954C17.0114 14.1549 17.0209 14.114 17.0301 14.0729L17.0425 14.0178C17.0541 13.965 17.0657 13.9122 17.0766 13.8584C17.079 13.848 17.0811 13.8373 17.0831 13.826C17.0927 13.7796 17.1019 13.7327 17.1108 13.6857C17.1146 13.6666 17.118 13.6474 17.1217 13.6283C17.1306 13.58 17.1392 13.5311 17.1477 13.4828C17.1494 13.4725 17.1515 13.4624 17.1532 13.4524C17.1628 13.3953 17.1721 13.3379 17.1812 13.28C17.1843 13.2605 17.1874 13.2411 17.1901 13.2213C17.1973 13.1743 17.2041 13.127 17.211 13.0791L17.2171 13.035C17.2253 12.9754 17.2332 12.9154 17.2407 12.8545C17.2431 12.8354 17.2451 12.8163 17.2475 12.7968C17.2535 12.7484 17.2589 12.6998 17.2639 12.651C17.266 12.6335 17.268 12.6163 17.2697 12.5988C17.2764 12.5362 17.2825 12.473 17.2882 12.4093C17.2882 12.3915 17.2913 12.3736 17.2926 12.3555C17.2971 12.3043 17.3015 12.2528 17.3053 12.2009C17.3053 12.1818 17.3084 12.1627 17.3097 12.1436C17.3145 12.0775 17.319 12.0109 17.3231 11.944C17.3231 11.9287 17.3231 11.9115 17.3255 11.8979C17.3285 11.8422 17.3316 11.7861 17.334 11.7298C17.334 11.7093 17.334 11.6889 17.3367 11.6685C17.3395 11.5989 17.3422 11.5289 17.3443 11.4579C17.3443 11.4482 17.3443 11.4381 17.3443 11.4281C17.3461 11.365 17.3474 11.3013 17.3484 11.2369C17.3484 11.2158 17.3484 11.1948 17.3484 11.1737C17.3484 11.1046 17.3484 11.035 17.3484 10.965V10.9488C17.3484 10.8743 17.3484 10.7988 17.3484 10.722V10.6572C17.3484 10.5924 17.3456 10.5243 17.3439 10.4569V10.4203C17.3415 10.3425 17.3384 10.2638 17.3354 10.1847C17.3354 10.1643 17.3333 10.1436 17.3326 10.1232C17.3297 10.0566 17.3263 9.98967 17.3224 9.92227C17.3224 9.90574 17.3224 9.88986 17.3196 9.87204C17.3149 9.79103 17.3096 9.70937 17.3039 9.62707L17.2998 9.56971C17.2947 9.50101 17.2896 9.43199 17.2838 9.36232C17.2838 9.34223 17.2807 9.32214 17.279 9.30205C17.2718 9.2178 17.2639 9.13258 17.2557 9.04703C17.2557 9.03083 17.2523 9.01463 17.2509 8.9981C17.2438 8.92519 17.2359 8.85164 17.228 8.77743C17.2257 8.75507 17.2233 8.73304 17.2205 8.71068C17.211 8.62254 17.2007 8.53408 17.1898 8.44432C17.1898 8.4333 17.1867 8.42228 17.1853 8.41191C17.1755 8.33155 17.1652 8.25076 17.1542 8.16953C17.1508 8.14555 17.1477 8.12158 17.1443 8.0976C17.1315 8.00557 17.1184 7.91278 17.105 7.81924C15.7378 -1.40748 6.04929 0.0899114 6.04929 0.0899114L6.35964 2.07239L0.500244 7.94076L0.756248 10.2068L2.97587 11.5029C3.07482 11.2645 3.20186 11.0374 3.35458 10.826C4.7867 9.25993 7.56515 8.03052 8.36051 7.7755C8.51979 7.72463 8.61036 7.69903 8.61036 7.69903C4.80584 12.3672 5.23855 17.7151 5.40808 18.9899C5.23171 19.0223 5.09534 19.2242 5.09534 19.4704C5.09534 19.7387 5.25701 19.9565 5.45628 19.9565H6.67956C4.64508 20.7639 3.03014 22.3015 2.18735 24.2338C2.18635 24.2365 2.18521 24.2391 2.18393 24.2416C2.12172 24.385 2.06385 24.5305 2.0103 24.6781C2.01039 24.6796 2.01039 24.6811 2.0103 24.6826C1.99594 24.7228 1.98193 24.763 1.96826 24.8035C1.96313 24.8181 1.958 24.8327 1.95322 24.8476C1.94091 24.8839 1.92952 24.9205 1.91904 24.9574C1.91288 24.9762 1.90707 24.9953 1.90126 25.0141C1.89033 25.0488 1.87973 25.0838 1.86948 25.1188L1.85102 25.1836C1.84145 25.216 1.83188 25.2507 1.82299 25.2844C1.8165 25.3083 1.81035 25.332 1.80419 25.356C1.79599 25.3884 1.78745 25.4208 1.77959 25.4532C1.77172 25.4856 1.7642 25.518 1.75668 25.5523C1.74916 25.5867 1.73959 25.6269 1.73139 25.6645H1.24365C1.14986 25.6625 1.0566 25.6783 0.969345 25.711C0.882091 25.7437 0.8026 25.7925 0.735537 25.8547C0.668474 25.9169 0.615187 25.9912 0.578809 26.0732C0.542431 26.1552 0.523692 26.2432 0.523692 26.3322C0.523692 26.4211 0.542431 26.5091 0.578809 26.5911C0.615187 26.6731 0.668474 26.7474 0.735537 26.8096C0.8026 26.8718 0.882091 26.9206 0.969345 26.9533C1.0566 26.986 1.14986 27.0018 1.24365 26.9998H18.5303C18.6241 27.0018 18.7173 26.986 18.8046 26.9533C18.8918 26.9206 18.9713 26.8718 19.0384 26.8096C19.1055 26.7474 19.1587 26.6731 19.1951 26.5911C19.2315 26.5091 19.2502 26.4211 19.2502 26.3322C19.2502 26.2432 19.2315 26.1552 19.1951 26.0732C19.1587 25.9912 19.1055 25.9169 19.0384 25.8547C18.9713 25.7925 18.8918 25.7437 18.8046 25.711C18.7173 25.6783 18.6241 25.6625 18.5303 25.6645L18.5241 25.6586Z" fill="#595653"/>
</svg>
